<svg xmlns="http://www.w3.org/2000/svg" xmlns:xlink="http://www.w3.org/1999/xlink" width="300" zoomAndPan="magnify" viewBox="0 0 224.87999 74.999997" height="100" preserveAspectRatio="xMidYMid meet" version="1.0"><defs><g/><clipPath id="c12e68932b"><path d="M 60.046875 12 L 107 12 L 107 38.890625 L 60.046875 38.890625 Z M 60.046875 12 " clip-rule="nonzero"/></clipPath><clipPath id="78f7e5dcbb"><path d="M 100 0.0195312 L 105 0.0195312 L 105 5 L 100 5 Z M 100 0.0195312 " clip-rule="nonzero"/></clipPath><clipPath id="384796c831"><path d="M 108 10 L 112.054688 10 L 112.054688 15 L 108 15 Z M 108 10 " clip-rule="nonzero"/></clipPath><clipPath id="d35b76f96c"><path d="M 106.285156 2 L 111 2 L 111 9 L 106.285156 9 Z M 106.285156 2 " clip-rule="nonzero"/></clipPath><clipPath id="630792fb4f"><path d="M 114 2 L 118.957031 2 L 118.957031 9 L 114 9 Z M 114 2 " clip-rule="nonzero"/></clipPath><clipPath id="d823eadfa8"><path d="M 110 1.097656 L 115 1.097656 L 115 9.546875 L 110 9.546875 Z M 110 1.097656 " clip-rule="nonzero"/></clipPath></defs><g clip-path="url(#c12e68932b)"><path fill="#004aad" d="M 59.992188 21.914062 C 60.625 19.6875 62.429688 17.621094 65.085938 16.414062 C 65.203125 16.359375 65.355469 16.308594 65.46875 16.367188 C 65.539062 16.40625 65.5625 16.476562 65.578125 16.539062 C 65.625 16.722656 65.675781 16.90625 65.722656 17.089844 C 66.527344 16.445312 67.28125 15.320312 66.847656 14.296875 C 66.839844 14.277344 66.828125 14.253906 66.808594 14.242188 C 66.765625 14.21875 66.714844 14.25 66.675781 14.28125 C 66.125 14.722656 64.683594 14.796875 64.617188 13.816406 C 64.546875 12.757812 65.832031 12.238281 67.070312 12.535156 C 68.464844 12.863281 69.332031 14.046875 69.402344 15.042969 C 69.550781 17 67.683594 18.285156 65.730469 19.363281 C 64.09375 20.269531 62.390625 21.273438 62.300781 22.886719 C 62.207031 24.625 64.472656 25.613281 66.136719 25.898438 C 66.128906 25.726562 66.140625 25.554688 66.179688 25.386719 C 66.738281 22.980469 69.894531 23.332031 70.902344 23.09375 C 71.949219 22.847656 72.84375 22.171875 73.453125 21.285156 C 73.453125 21.28125 73.457031 21.277344 73.460938 21.269531 C 73.582031 21.09375 73.726562 20.695312 73.90625 20.578125 C 73.949219 20.550781 74 20.53125 74.050781 20.515625 C 74.082031 20.378906 74.144531 20.246094 74.210938 20.171875 C 74.226562 20.152344 74.242188 20.140625 74.257812 20.125 C 74.246094 20.050781 74.242188 19.980469 74.246094 19.945312 C 74.257812 19.71875 74.367188 19.585938 74.585938 19.550781 C 74.609375 19.292969 74.691406 19.03125 74.734375 18.796875 C 74.792969 18.488281 74.867188 18.1875 75.023438 17.914062 C 75.199219 17.601562 75.40625 17.308594 75.671875 17.105469 L 75.691406 15.957031 C 75.75 15.941406 75.808594 15.929688 75.867188 15.914062 C 75.90625 15.679688 76.089844 15.480469 76.34375 15.367188 C 76.339844 15.332031 76.335938 15.296875 76.335938 15.257812 C 76.34375 14.847656 76.582031 14.515625 76.867188 14.519531 C 77.152344 14.523438 77.375 14.863281 77.367188 15.277344 C 77.367188 15.3125 77.363281 15.351562 77.359375 15.386719 C 77.609375 15.507812 77.785156 15.710938 77.816406 15.949219 C 77.875 15.964844 77.933594 15.976562 77.992188 15.996094 L 77.972656 17.144531 C 78.230469 17.355469 78.425781 17.65625 78.59375 17.972656 C 78.738281 18.253906 78.804688 18.554688 78.851562 18.863281 C 78.890625 19.101562 78.960938 19.367188 78.976562 19.625 C 79.195312 19.667969 79.296875 19.800781 79.304688 20.03125 C 79.304688 20.066406 79.296875 20.136719 79.28125 20.207031 C 79.296875 20.222656 79.3125 20.238281 79.328125 20.257812 C 79.378906 20.316406 79.425781 20.410156 79.457031 20.511719 C 79.632812 20.523438 79.769531 20.597656 79.925781 20.820312 C 80.417969 21.519531 80.871094 22.117188 81.621094 22.570312 C 81.625 22.574219 81.632812 22.574219 81.636719 22.578125 C 82.582031 23.144531 83.699219 23.339844 84.785156 23.15625 C 86.492188 22.863281 89.472656 22.335938 91.046875 21.988281 C 93.695312 21.410156 100.988281 20.0625 104.613281 22.46875 C 104.894531 22.65625 104.703125 22.847656 104.875 23.140625 C 105.078125 23.484375 106.648438 23.765625 106.632812 24.808594 C 102.585938 22.644531 98.132812 23.765625 96.6875 24.253906 C 95.121094 24.78125 93.671875 25.554688 92.285156 26.445312 C 90.195312 27.785156 88.320312 29.410156 86.136719 30.609375 C 84.109375 31.71875 82.070312 32.285156 79.757812 32.601562 C 79.746094 32.640625 79.734375 32.679688 79.710938 32.71875 C 79.617188 32.878906 79.453125 32.957031 79.304688 33.046875 C 78.824219 33.339844 78.429688 33.839844 78.277344 34.441406 C 78.125 35.039062 78.234375 35.726562 78.589844 36.191406 C 78.914062 36.613281 79.402344 36.824219 79.878906 36.953125 C 80.289062 37.0625 80.710938 37.128906 81.113281 37.273438 C 82.941406 37.566406 84.144531 38.003906 84.136719 38.324219 C 84.128906 38.832031 81.074219 39.195312 77.3125 39.132812 C 73.550781 39.070312 70.511719 38.605469 70.519531 38.09375 C 70.523438 37.773438 71.742188 37.378906 73.578125 37.144531 C 73.984375 37.015625 74.40625 36.964844 74.820312 36.867188 C 75.304688 36.753906 75.796875 36.5625 76.132812 36.152344 C 76.507812 35.695312 76.636719 35.011719 76.507812 34.410156 C 76.375 33.808594 76 33.289062 75.527344 32.984375 C 75.390625 32.894531 75.246094 32.8125 75.152344 32.671875 C 72.554688 32.203125 69.796875 30.832031 67.890625 28.929688 C 67.6875 29.542969 67.191406 30.039062 66.140625 30.199219 C 65.195312 30.34375 63.800781 30.121094 64.050781 29.199219 C 64.394531 29.492188 65.195312 29.523438 65.523438 29.1875 C 65.921875 28.78125 65.800781 27.691406 64.609375 27.195312 C 63.714844 26.828125 62.761719 26.625 61.960938 26.191406 C 61.160156 25.757812 60.472656 25.1875 60.113281 24.515625 C 59.675781 23.691406 59.75 22.773438 59.992188 21.914062 Z M 59.992188 21.914062 " fill-opacity="1" fill-rule="nonzero"/></g><path fill="#fefdb7" d="M 107.425781 21.347656 C 107.726562 21.078125 108 20.785156 108.226562 20.46875 C 108.449219 20.148438 108.636719 19.816406 108.746094 19.464844 C 108.859375 19.117188 108.910156 18.75 108.886719 18.402344 C 108.871094 18.050781 108.769531 17.722656 108.605469 17.453125 C 108.4375 17.1875 108.207031 16.96875 107.921875 16.8125 C 107.636719 16.65625 107.316406 16.546875 106.980469 16.5 C 106.8125 16.476562 106.640625 16.460938 106.472656 16.464844 C 106.292969 16.46875 106.109375 16.476562 105.933594 16.496094 C 105.21875 16.570312 104.535156 16.828125 103.753906 17.113281 C 102.980469 17.40625 102.125 17.660156 101.265625 17.804688 C 100.832031 17.878906 100.398438 17.925781 99.96875 17.953125 L 99.804688 17.964844 L 99.628906 17.96875 C 99.511719 17.976562 99.398438 17.972656 99.28125 17.972656 C 99.050781 17.96875 98.824219 17.953125 98.597656 17.925781 C 97.695312 17.816406 96.808594 17.578125 95.976562 17.160156 C 95.5625 16.949219 95.15625 16.699219 94.785156 16.386719 C 94.597656 16.230469 94.421875 16.054688 94.253906 15.871094 C 94.09375 15.679688 93.9375 15.480469 93.804688 15.257812 C 93.539062 14.824219 93.359375 14.320312 93.277344 13.8125 C 93.195312 13.300781 93.226562 12.773438 93.339844 12.289062 C 93.566406 11.320312 94.105469 10.433594 94.929688 9.824219 C 95.132812 9.671875 95.359375 9.539062 95.597656 9.433594 C 95.714844 9.382812 95.84375 9.335938 95.960938 9.300781 C 96.070312 9.273438 96.179688 9.238281 96.292969 9.210938 C 96.742188 9.105469 97.207031 9.042969 97.667969 9.042969 C 98.597656 9.050781 99.484375 9.300781 100.265625 9.628906 C 101.054688 9.957031 101.765625 10.351562 102.492188 10.632812 C 102.671875 10.703125 102.855469 10.765625 103.039062 10.816406 C 103.222656 10.871094 103.414062 10.914062 103.605469 10.949219 C 103.984375 11.015625 104.367188 11.046875 104.734375 10.992188 C 105.101562 10.9375 105.441406 10.765625 105.679688 10.46875 C 105.925781 10.175781 106.042969 9.773438 106.105469 9.371094 C 106.121094 9.574219 106.117188 9.785156 106.082031 9.992188 C 106.050781 10.199219 105.988281 10.40625 105.882812 10.601562 C 105.671875 10.996094 105.269531 11.285156 104.84375 11.417969 C 104.417969 11.5625 103.96875 11.589844 103.539062 11.574219 C 103.324219 11.566406 103.109375 11.546875 102.894531 11.515625 C 102.679688 11.488281 102.464844 11.441406 102.257812 11.394531 C 101.835938 11.292969 101.4375 11.160156 101.046875 11.027344 C 100.65625 10.898438 100.277344 10.765625 99.902344 10.652344 C 99.152344 10.429688 98.417969 10.296875 97.710938 10.359375 C 97.355469 10.386719 97.007812 10.457031 96.667969 10.566406 C 96.585938 10.589844 96.5 10.625 96.417969 10.65625 C 96.335938 10.683594 96.277344 10.714844 96.210938 10.75 C 96.078125 10.816406 95.953125 10.902344 95.835938 11 C 95.367188 11.390625 95.03125 12.003906 94.914062 12.625 C 94.796875 13.25 94.914062 13.859375 95.242188 14.371094 C 95.570312 14.882812 96.113281 15.3125 96.742188 15.621094 C 97.375 15.929688 98.082031 16.140625 98.800781 16.230469 C 98.980469 16.253906 99.160156 16.269531 99.335938 16.277344 C 99.425781 16.28125 99.515625 16.285156 99.601562 16.285156 L 99.734375 16.28125 L 99.875 16.277344 C 100.261719 16.261719 100.640625 16.230469 101.015625 16.179688 C 101.394531 16.132812 101.765625 16.058594 102.136719 15.972656 C 102.511719 15.882812 102.882812 15.773438 103.269531 15.660156 C 103.65625 15.542969 104.058594 15.417969 104.492188 15.316406 C 104.921875 15.210938 105.382812 15.144531 105.839844 15.128906 C 106.070312 15.121094 106.296875 15.128906 106.523438 15.144531 C 106.765625 15.164062 107 15.203125 107.230469 15.257812 C 107.695312 15.371094 108.148438 15.5625 108.550781 15.851562 C 108.953125 16.136719 109.296875 16.53125 109.507812 16.992188 C 109.710938 17.453125 109.78125 17.949219 109.746094 18.414062 C 109.710938 18.882812 109.582031 19.328125 109.378906 19.730469 C 109.277344 19.929688 109.15625 20.125 109.023438 20.296875 C 108.894531 20.476562 108.75 20.636719 108.59375 20.789062 C 108.28125 21.089844 107.941406 21.339844 107.585938 21.558594 C 107.226562 21.773438 106.859375 21.960938 106.476562 22.121094 C 106.808594 21.871094 107.132812 21.625 107.425781 21.347656 Z M 107.425781 21.347656 " fill-opacity="1" fill-rule="nonzero"/><path fill="#fefdb7" d="M 88.949219 17.3125 L 88.558594 15.898438 L 87.222656 15.464844 L 88.574219 15.074219 L 89.011719 13.582031 L 89.398438 15.085938 L 90.832031 15.523438 L 89.386719 15.914062 Z M 88.949219 17.3125 " fill-opacity="1" fill-rule="nonzero"/><g clip-path="url(#78f7e5dcbb)"><path fill="#fefdb7" d="M 102.203125 4.613281 L 101.726562 2.875 L 100.078125 2.335938 L 101.742188 1.859375 L 102.28125 0.0195312 L 102.757812 1.875 L 104.519531 2.414062 L 102.742188 2.890625 Z M 102.203125 4.613281 " fill-opacity="1" fill-rule="nonzero"/></g><g clip-path="url(#384796c831)"><path fill="#fefdb7" d="M 110.167969 11.847656 L 110.605469 10.355469 L 110.992188 11.863281 L 112.421875 12.300781 L 110.976562 12.6875 L 110.542969 14.085938 L 110.152344 12.671875 L 108.816406 12.238281 Z M 110.167969 11.847656 " fill-opacity="1" fill-rule="nonzero"/></g><path fill="#eda423" d="M 77.320312 15.425781 C 77.3125 15.429688 77.296875 15.441406 77.277344 15.453125 C 77.257812 15.460938 77.238281 15.472656 77.214844 15.480469 C 77.191406 15.488281 77.164062 15.496094 77.136719 15.503906 C 77.105469 15.511719 77.074219 15.515625 77.042969 15.519531 C 77.011719 15.523438 76.980469 15.527344 76.949219 15.53125 C 76.917969 15.53125 76.886719 15.53125 76.863281 15.53125 C 76.835938 15.53125 76.808594 15.527344 76.78125 15.523438 C 76.753906 15.519531 76.722656 15.511719 76.683594 15.503906 C 76.648438 15.492188 76.613281 15.484375 76.582031 15.472656 C 76.550781 15.464844 76.527344 15.457031 76.507812 15.449219 C 76.484375 15.441406 76.464844 15.429688 76.445312 15.417969 C 76.421875 15.402344 76.402344 15.390625 76.386719 15.378906 C 76.367188 15.367188 76.367188 15.367188 76.378906 15.375 C 76.378906 15.375 76.402344 15.382812 76.425781 15.390625 C 76.449219 15.402344 76.472656 15.40625 76.496094 15.414062 C 76.515625 15.421875 76.539062 15.425781 76.558594 15.429688 C 76.578125 15.433594 76.621094 15.441406 76.660156 15.445312 C 76.695312 15.453125 76.730469 15.457031 76.761719 15.460938 C 76.789062 15.464844 76.816406 15.46875 76.839844 15.46875 C 76.859375 15.46875 76.890625 15.46875 76.917969 15.472656 C 76.949219 15.472656 76.980469 15.472656 77.011719 15.472656 C 77.039062 15.472656 77.070312 15.46875 77.101562 15.46875 C 77.132812 15.464844 77.15625 15.460938 77.179688 15.457031 C 77.207031 15.449219 77.230469 15.445312 77.25 15.441406 C 77.269531 15.433594 77.289062 15.429688 77.300781 15.429688 C 77.320312 15.421875 77.3125 15.429688 77.320312 15.425781 Z M 77.320312 15.425781 " fill-opacity="1" fill-rule="nonzero"/><path fill="#eda423" d="M 77.792969 15.988281 C 77.78125 16 77.742188 16.015625 77.699219 16.03125 C 77.65625 16.042969 77.601562 16.058594 77.542969 16.070312 C 77.484375 16.085938 77.417969 16.097656 77.355469 16.109375 C 77.292969 16.117188 77.234375 16.125 77.179688 16.132812 C 77.125 16.136719 77.066406 16.140625 77.007812 16.144531 C 76.949219 16.144531 76.890625 16.148438 76.835938 16.148438 C 76.78125 16.148438 76.726562 16.148438 76.671875 16.140625 C 76.613281 16.136719 76.554688 16.132812 76.492188 16.121094 C 76.429688 16.113281 76.363281 16.101562 76.3125 16.089844 C 76.257812 16.082031 76.21875 16.070312 76.175781 16.058594 C 76.136719 16.046875 76.097656 16.035156 76.058594 16.019531 C 76.019531 16.003906 75.980469 15.984375 75.953125 15.96875 C 75.925781 15.953125 75.925781 15.953125 75.945312 15.960938 C 75.945312 15.960938 75.984375 15.972656 76.027344 15.984375 C 76.066406 15.992188 76.105469 16 76.148438 16.011719 C 76.1875 16.019531 76.226562 16.023438 76.265625 16.03125 C 76.308594 16.035156 76.375 16.042969 76.4375 16.050781 C 76.5 16.054688 76.5625 16.0625 76.617188 16.066406 C 76.675781 16.066406 76.730469 16.070312 76.78125 16.070312 C 76.832031 16.070312 76.890625 16.070312 76.949219 16.070312 C 77.003906 16.066406 77.0625 16.066406 77.117188 16.0625 C 77.175781 16.058594 77.230469 16.054688 77.285156 16.050781 C 77.339844 16.046875 77.410156 16.039062 77.472656 16.03125 C 77.539062 16.023438 77.59375 16.015625 77.644531 16.007812 C 77.695312 16 77.738281 15.992188 77.757812 15.992188 C 77.792969 15.988281 77.777344 15.996094 77.792969 15.988281 Z M 77.792969 15.988281 " fill-opacity="1" fill-rule="nonzero"/><path fill="#eda423" d="M 79.269531 20.582031 C 79.242188 20.605469 79.164062 20.636719 79.0625 20.667969 C 78.960938 20.699219 78.839844 20.730469 78.695312 20.761719 C 78.546875 20.796875 78.382812 20.832031 78.253906 20.855469 C 78.125 20.878906 78.054688 20.886719 77.984375 20.894531 C 77.917969 20.902344 77.847656 20.910156 77.78125 20.914062 C 77.71875 20.917969 77.652344 20.921875 77.613281 20.921875 C 77.574219 20.925781 77.535156 20.925781 77.46875 20.929688 C 77.40625 20.929688 77.3125 20.933594 77.191406 20.933594 C 77.070312 20.9375 76.917969 20.941406 76.785156 20.941406 C 76.648438 20.941406 76.539062 20.941406 76.417969 20.933594 C 76.292969 20.929688 76.15625 20.921875 76.007812 20.910156 C 75.859375 20.898438 75.695312 20.882812 75.5625 20.863281 C 75.429688 20.847656 75.347656 20.835938 75.273438 20.824219 C 75.203125 20.8125 75.144531 20.800781 75.09375 20.792969 C 75.046875 20.78125 75.011719 20.773438 74.933594 20.753906 C 74.851562 20.738281 74.722656 20.703125 74.644531 20.679688 C 74.566406 20.65625 74.5 20.636719 74.449219 20.617188 C 74.394531 20.601562 74.355469 20.585938 74.328125 20.574219 C 74.304688 20.566406 74.304688 20.566406 74.320312 20.570312 C 74.320312 20.570312 74.359375 20.566406 74.40625 20.570312 C 74.453125 20.574219 74.515625 20.582031 74.585938 20.59375 C 74.65625 20.605469 74.738281 20.621094 74.871094 20.640625 C 75.003906 20.660156 75.03125 20.664062 75.070312 20.667969 C 75.109375 20.675781 75.160156 20.679688 75.222656 20.6875 C 75.289062 20.695312 75.363281 20.703125 75.449219 20.710938 C 75.535156 20.71875 75.707031 20.730469 75.867188 20.742188 C 76.023438 20.753906 76.167969 20.765625 76.296875 20.773438 C 76.425781 20.78125 76.542969 20.785156 76.644531 20.785156 C 76.746094 20.785156 76.914062 20.785156 77.054688 20.78125 C 77.195312 20.777344 77.308594 20.777344 77.390625 20.773438 C 77.476562 20.773438 77.53125 20.769531 77.554688 20.769531 C 77.582031 20.769531 77.644531 20.765625 77.707031 20.761719 C 77.773438 20.757812 77.835938 20.753906 77.90625 20.75 C 77.972656 20.746094 78.039062 20.742188 78.109375 20.734375 C 78.179688 20.730469 78.359375 20.707031 78.519531 20.683594 C 78.683594 20.660156 78.820312 20.640625 78.9375 20.625 C 79.054688 20.605469 79.152344 20.589844 79.195312 20.589844 C 79.269531 20.578125 79.238281 20.59375 79.269531 20.582031 Z M 79.269531 20.582031 " fill-opacity="1" fill-rule="nonzero"/><path fill="#eda423" d="M 78.777344 19.773438 C 78.769531 19.777344 78.757812 19.777344 78.746094 19.777344 C 78.734375 19.78125 78.722656 19.78125 78.707031 19.78125 C 78.695312 19.785156 78.683594 19.789062 78.636719 19.796875 C 78.59375 19.808594 78.519531 19.824219 78.453125 19.835938 C 78.386719 19.847656 78.328125 19.859375 78.273438 19.867188 C 78.222656 19.875 78.171875 19.882812 78.144531 19.886719 C 78.117188 19.890625 78.101562 19.890625 78.085938 19.894531 C 78.074219 19.894531 78.058594 19.898438 78.042969 19.898438 C 78.03125 19.898438 78.015625 19.902344 77.976562 19.90625 C 77.933594 19.910156 77.875 19.914062 77.820312 19.917969 C 77.765625 19.921875 77.71875 19.925781 77.675781 19.929688 C 77.636719 19.933594 77.597656 19.9375 77.449219 19.949219 C 77.300781 19.957031 77.039062 19.96875 77 19.96875 C 76.964844 19.96875 76.929688 19.96875 76.894531 19.96875 C 76.859375 19.96875 76.828125 19.96875 76.796875 19.96875 C 76.765625 19.96875 76.734375 19.964844 76.632812 19.960938 C 76.527344 19.957031 76.433594 19.949219 76.347656 19.941406 C 76.257812 19.933594 76.179688 19.925781 76.105469 19.917969 C 76.035156 19.90625 75.972656 19.898438 75.929688 19.890625 C 75.886719 19.882812 75.796875 19.867188 75.667969 19.84375 C 75.535156 19.820312 75.359375 19.785156 75.210938 19.734375 C 75.0625 19.683594 75.0625 19.683594 75.164062 19.699219 C 75.164062 19.699219 75.378906 19.679688 75.539062 19.699219 C 75.699219 19.71875 75.816406 19.734375 75.890625 19.742188 C 75.960938 19.75 75.992188 19.75 76.058594 19.757812 C 76.121094 19.765625 76.195312 19.773438 76.277344 19.78125 C 76.355469 19.785156 76.445312 19.792969 76.539062 19.800781 C 76.636719 19.804688 76.742188 19.8125 76.769531 19.8125 C 76.796875 19.8125 76.828125 19.8125 76.863281 19.8125 C 76.894531 19.8125 76.925781 19.8125 76.960938 19.8125 C 76.996094 19.8125 77.03125 19.8125 77.296875 19.804688 C 77.558594 19.800781 77.589844 19.796875 77.628906 19.796875 C 77.664062 19.792969 77.710938 19.792969 77.761719 19.792969 C 77.8125 19.789062 77.867188 19.789062 77.929688 19.789062 C 77.992188 19.785156 78.007812 19.785156 78.023438 19.785156 C 78.035156 19.785156 78.050781 19.785156 78.066406 19.785156 C 78.078125 19.785156 78.09375 19.785156 78.105469 19.78125 C 78.121094 19.78125 78.164062 19.78125 78.214844 19.777344 C 78.261719 19.777344 78.320312 19.773438 78.382812 19.769531 C 78.441406 19.765625 78.511719 19.757812 78.589844 19.757812 C 78.664062 19.753906 78.679688 19.753906 78.695312 19.753906 C 78.707031 19.753906 78.722656 19.757812 78.734375 19.757812 C 78.75 19.761719 78.761719 19.765625 78.765625 19.765625 C 78.777344 19.769531 78.773438 19.773438 78.777344 19.773438 Z M 78.777344 19.773438 " fill-opacity="1" fill-rule="nonzero"/><path fill="#eda423" d="M 79.542969 32.613281 C 79.53125 32.617188 79.515625 32.617188 79.496094 32.621094 C 79.476562 32.621094 79.453125 32.625 79.433594 32.628906 C 79.414062 32.632812 79.390625 32.636719 79.332031 32.652344 C 79.277344 32.664062 79.171875 32.691406 79.0625 32.710938 C 78.953125 32.734375 78.835938 32.753906 78.707031 32.773438 C 78.582031 32.796875 78.449219 32.8125 78.351562 32.824219 C 78.257812 32.835938 78.214844 32.839844 78.175781 32.84375 C 78.136719 32.84375 78.101562 32.847656 78.070312 32.847656 C 78.039062 32.851562 78.007812 32.851562 77.988281 32.851562 C 77.96875 32.851562 77.957031 32.851562 77.941406 32.851562 C 77.925781 32.851562 77.910156 32.851562 77.890625 32.851562 C 77.875 32.851562 77.855469 32.851562 77.820312 32.851562 C 77.78125 32.851562 77.734375 32.851562 77.695312 32.851562 C 77.652344 32.851562 77.621094 32.851562 77.597656 32.851562 C 77.574219 32.851562 77.558594 32.851562 77.476562 32.851562 C 77.394531 32.855469 77.238281 32.855469 77.207031 32.855469 C 77.175781 32.855469 77.132812 32.855469 77.082031 32.855469 C 77.03125 32.851562 76.972656 32.851562 76.902344 32.847656 C 76.835938 32.847656 76.757812 32.84375 76.738281 32.84375 C 76.722656 32.84375 76.699219 32.839844 76.671875 32.839844 C 76.644531 32.839844 76.609375 32.839844 76.570312 32.839844 C 76.53125 32.839844 76.488281 32.835938 76.476562 32.835938 C 76.464844 32.835938 76.457031 32.835938 76.445312 32.835938 C 76.433594 32.835938 76.425781 32.835938 76.414062 32.835938 C 76.402344 32.835938 76.394531 32.832031 76.378906 32.832031 C 76.359375 32.832031 76.34375 32.832031 76.324219 32.828125 C 76.308594 32.828125 76.289062 32.824219 76.269531 32.824219 C 76.25 32.820312 76.226562 32.820312 76.183594 32.8125 C 76.140625 32.808594 76.097656 32.800781 76.0625 32.796875 C 76.023438 32.789062 75.992188 32.785156 75.960938 32.777344 C 75.929688 32.773438 75.902344 32.765625 75.714844 32.707031 C 75.527344 32.648438 75.527344 32.648438 75.65625 32.671875 C 75.65625 32.671875 75.921875 32.675781 75.949219 32.679688 C 75.972656 32.683594 76.003906 32.6875 76.039062 32.6875 C 76.074219 32.691406 76.109375 32.695312 76.152344 32.695312 C 76.191406 32.699219 76.238281 32.703125 76.257812 32.703125 C 76.277344 32.703125 76.296875 32.703125 76.3125 32.703125 C 76.332031 32.703125 76.347656 32.707031 76.363281 32.707031 C 76.382812 32.707031 76.394531 32.703125 76.40625 32.703125 C 76.414062 32.703125 76.425781 32.703125 76.4375 32.703125 C 76.445312 32.703125 76.457031 32.703125 76.464844 32.703125 C 76.476562 32.703125 76.484375 32.703125 76.527344 32.703125 C 76.570312 32.699219 76.609375 32.699219 76.640625 32.699219 C 76.671875 32.695312 76.699219 32.695312 76.722656 32.695312 C 76.742188 32.695312 76.761719 32.695312 76.835938 32.695312 C 76.910156 32.695312 76.976562 32.695312 77.03125 32.695312 C 77.089844 32.699219 77.136719 32.699219 77.171875 32.699219 C 77.210938 32.699219 77.234375 32.699219 77.390625 32.699219 C 77.546875 32.695312 77.558594 32.695312 77.578125 32.695312 C 77.59375 32.695312 77.621094 32.695312 77.65625 32.695312 C 77.691406 32.695312 77.734375 32.695312 77.789062 32.695312 C 77.839844 32.699219 77.855469 32.699219 77.875 32.699219 C 77.890625 32.699219 77.90625 32.699219 77.921875 32.695312 C 77.9375 32.695312 77.953125 32.695312 77.96875 32.695312 C 77.980469 32.695312 78.007812 32.695312 78.035156 32.695312 C 78.0625 32.695312 78.09375 32.695312 78.132812 32.695312 C 78.167969 32.691406 78.207031 32.691406 78.25 32.691406 C 78.292969 32.6875 78.433594 32.675781 78.566406 32.667969 C 78.695312 32.65625 78.820312 32.644531 78.9375 32.632812 C 79.054688 32.621094 79.160156 32.609375 79.261719 32.601562 C 79.363281 32.589844 79.386719 32.589844 79.410156 32.589844 C 79.433594 32.589844 79.453125 32.589844 79.472656 32.59375 C 79.496094 32.597656 79.515625 32.597656 79.523438 32.601562 C 79.542969 32.609375 79.53125 32.613281 79.542969 32.613281 Z M 79.542969 32.613281 " fill-opacity="1" fill-rule="nonzero"/><path fill="#eda423" d="M 104.839844 23.304688 C 104.859375 23.324219 104.898438 23.375 104.9375 23.425781 C 104.976562 23.476562 105.023438 23.53125 105.074219 23.585938 C 105.125 23.644531 105.183594 23.699219 105.234375 23.75 C 105.28125 23.796875 105.316406 23.835938 105.351562 23.871094 C 105.382812 23.90625 105.414062 23.9375 105.445312 23.964844 C 105.476562 23.996094 105.503906 24.019531 105.523438 24.039062 C 105.542969 24.058594 105.558594 24.070312 105.582031 24.089844 C 105.601562 24.109375 105.632812 24.128906 105.667969 24.160156 C 105.703125 24.1875 105.746094 24.21875 105.78125 24.246094 C 105.816406 24.269531 105.816406 24.269531 105.789062 24.253906 C 105.789062 24.253906 105.738281 24.230469 105.691406 24.210938 C 105.644531 24.1875 105.605469 24.167969 105.578125 24.152344 C 105.546875 24.136719 105.523438 24.121094 105.503906 24.109375 C 105.488281 24.097656 105.457031 24.074219 105.425781 24.050781 C 105.394531 24.023438 105.359375 23.996094 105.324219 23.964844 C 105.289062 23.9375 105.25 23.902344 105.210938 23.867188 C 105.175781 23.828125 105.117188 23.761719 105.066406 23.699219 C 105.015625 23.632812 104.96875 23.570312 104.933594 23.511719 C 104.894531 23.453125 104.863281 23.394531 104.855469 23.363281 C 104.835938 23.304688 104.851562 23.332031 104.839844 23.304688 Z M 104.839844 23.304688 " fill-opacity="1" fill-rule="nonzero"/><g clip-path="url(#d35b76f96c)"><path fill="#fefdb7" d="M 109.40625 8.492188 C 109.222656 8.492188 109.101562 8.433594 108.980469 8.308594 L 106.554688 5.886719 C 106.3125 5.644531 106.3125 5.28125 106.554688 5.035156 L 108.980469 2.613281 C 109.222656 2.371094 109.585938 2.371094 109.828125 2.613281 C 110.070312 2.855469 110.070312 3.21875 109.828125 3.460938 L 107.828125 5.460938 L 109.828125 7.460938 C 110.070312 7.703125 110.070312 8.066406 109.828125 8.308594 C 109.707031 8.433594 109.585938 8.492188 109.40625 8.492188 Z M 109.40625 8.492188 " fill-opacity="1" fill-rule="nonzero"/></g><g clip-path="url(#630792fb4f)"><path fill="#fefdb7" d="M 115.46875 8.492188 C 115.285156 8.492188 115.164062 8.433594 115.042969 8.308594 C 114.800781 8.066406 114.800781 7.703125 115.042969 7.460938 L 117.042969 5.460938 L 115.042969 3.460938 C 114.800781 3.21875 114.800781 2.855469 115.042969 2.613281 C 115.285156 2.371094 115.648438 2.371094 115.890625 2.613281 L 118.316406 5.035156 C 118.558594 5.28125 118.558594 5.644531 118.316406 5.886719 L 115.890625 8.308594 C 115.769531 8.433594 115.648438 8.492188 115.46875 8.492188 Z M 115.46875 8.492188 " fill-opacity="1" fill-rule="nonzero"/></g><g clip-path="url(#d823eadfa8)"><path fill="#fefdb7" d="M 111.222656 9.703125 C 111.164062 9.703125 111.101562 9.703125 111.042969 9.644531 C 110.738281 9.523438 110.558594 9.21875 110.679688 8.855469 L 113.101562 1.582031 C 113.222656 1.277344 113.527344 1.097656 113.890625 1.21875 C 114.195312 1.339844 114.375 1.640625 114.253906 2.003906 L 111.832031 9.28125 C 111.707031 9.523438 111.464844 9.703125 111.222656 9.703125 Z M 111.222656 9.703125 " fill-opacity="1" fill-rule="nonzero"/></g><g fill="#ffffff" fill-opacity="1"><g transform="translate(44.946094, 60.690463)"><g><path d="M 5.4375 0 L 2.734375 0 C 2.285156 0 2.0625 -0.222656 2.0625 -0.671875 L 2.0625 -19.8125 C 2.0625 -20.25 2.285156 -20.46875 2.734375 -20.46875 L 12.890625 -20.46875 C 13.316406 -20.46875 13.53125 -20.25 13.53125 -19.8125 L 13.53125 -17.640625 C 13.53125 -17.191406 13.316406 -16.96875 12.890625 -16.96875 L 6.5 -16.96875 C 6.238281 -16.96875 6.109375 -16.851562 6.109375 -16.625 L 6.109375 -11.6875 C 6.109375 -11.425781 6.238281 -11.296875 6.5 -11.296875 L 11.9375 -11.296875 C 12.382812 -11.296875 12.609375 -11.078125 12.609375 -10.640625 L 12.609375 -8.5 C 12.609375 -8.03125 12.382812 -7.796875 11.9375 -7.796875 L 6.5 -7.796875 C 6.238281 -7.796875 6.109375 -7.679688 6.109375 -7.453125 L 6.109375 -0.671875 C 6.109375 -0.222656 5.882812 0 5.4375 0 Z M 5.4375 0 "/></g></g></g><g fill="#ffffff" fill-opacity="1"><g transform="translate(59.264541, 60.690463)"><g><path d="M 6.265625 -19.8125 L 6.265625 -0.671875 C 6.265625 -0.222656 6.046875 0 5.609375 0 L 2.890625 0 C 2.453125 0 2.234375 -0.222656 2.234375 -0.671875 L 2.234375 -19.8125 C 2.234375 -20.25 2.453125 -20.46875 2.890625 -20.46875 L 5.609375 -20.46875 C 6.046875 -20.46875 6.265625 -20.25 6.265625 -19.8125 Z M 6.265625 -19.8125 "/></g></g></g><g fill="#ffffff" fill-opacity="1"><g transform="translate(67.760162, 60.690463)"><g><path d="M 4.390625 0 L 1.234375 0 C 1.023438 0 0.878906 -0.0664062 0.796875 -0.203125 C 0.710938 -0.335938 0.710938 -0.503906 0.796875 -0.703125 L 5.734375 -10.484375 L 0.953125 -19.78125 C 0.867188 -19.945312 0.867188 -20.101562 0.953125 -20.25 C 1.035156 -20.394531 1.1875 -20.46875 1.40625 -20.46875 L 4.453125 -20.46875 C 4.984375 -20.46875 5.335938 -20.25 5.515625 -19.8125 L 8.53125 -12.953125 L 8.65625 -12.953125 L 11.65625 -19.8125 C 11.863281 -20.25 12.203125 -20.46875 12.671875 -20.46875 L 15.796875 -20.46875 C 16.003906 -20.46875 16.15625 -20.390625 16.25 -20.234375 C 16.351562 -20.078125 16.359375 -19.914062 16.265625 -19.75 L 11.4375 -10.484375 L 16.375 -0.734375 C 16.476562 -0.515625 16.484375 -0.335938 16.390625 -0.203125 C 16.304688 -0.0664062 16.148438 0 15.921875 0 L 12.734375 0 C 12.285156 0 11.976562 -0.210938 11.8125 -0.640625 L 8.65625 -7.515625 L 8.53125 -7.515625 L 5.34375 -0.640625 C 5.15625 -0.210938 4.835938 0 4.390625 0 Z M 4.390625 0 "/></g></g></g><g fill="#ffffff" fill-opacity="1"><g transform="translate(84.942315, 60.690463)"><g><path d="M 7.484375 -20.46875 L 7.734375 -20.46875 C 8.160156 -20.46875 8.375 -20.25 8.375 -19.8125 L 8.375 -18.3125 C 8.375 -17.863281 8.160156 -17.640625 7.734375 -17.640625 L 7.640625 -17.640625 C 6.984375 -17.640625 6.53125 -17.492188 6.28125 -17.203125 C 6.039062 -16.921875 5.921875 -16.441406 5.921875 -15.765625 L 5.921875 -11.75 C 5.921875 -10.875 5.769531 -10.1875 5.46875 -9.6875 C 5.175781 -9.195312 4.671875 -8.832031 3.953125 -8.59375 C 5.265625 -8.238281 5.921875 -7.203125 5.921875 -5.484375 L 5.921875 -1.46875 C 5.921875 -0.789062 6.039062 -0.304688 6.28125 -0.015625 C 6.53125 0.265625 6.984375 0.40625 7.640625 0.40625 L 7.734375 0.40625 C 8.160156 0.40625 8.375 0.628906 8.375 1.078125 L 8.375 2.578125 C 8.375 3.023438 8.160156 3.25 7.734375 3.25 L 7.484375 3.25 C 4.316406 3.25 2.734375 1.519531 2.734375 -1.9375 L 2.734375 -5.15625 C 2.734375 -6.28125 2.289062 -6.84375 1.40625 -6.84375 C 0.957031 -6.84375 0.734375 -7.078125 0.734375 -7.546875 L 0.734375 -9.6875 C 0.734375 -10.144531 0.957031 -10.375 1.40625 -10.375 C 2.289062 -10.375 2.734375 -10.9375 2.734375 -12.0625 L 2.734375 -15.28125 C 2.734375 -18.738281 4.316406 -20.46875 7.484375 -20.46875 Z M 7.484375 -20.46875 "/></g></g></g><g fill="#ffffff" fill-opacity="1"><g transform="translate(94.965231, 60.690463)"><g><path d="M 10.375 0 L 7 0 C 5.320312 0 4.023438 -0.441406 3.109375 -1.328125 C 2.203125 -2.222656 1.75 -3.507812 1.75 -5.1875 L 1.75 -15.28125 C 1.75 -16.957031 2.203125 -18.238281 3.109375 -19.125 C 4.023438 -20.019531 5.320312 -20.46875 7 -20.46875 L 10.375 -20.46875 C 12.03125 -20.46875 13.316406 -20.015625 14.234375 -19.109375 C 15.148438 -18.210938 15.609375 -16.9375 15.609375 -15.28125 L 15.609375 -14.328125 C 15.609375 -13.859375 15.382812 -13.625 14.9375 -13.625 L 12.234375 -13.625 C 11.785156 -13.625 11.5625 -13.859375 11.5625 -14.328125 L 11.5625 -15.09375 C 11.5625 -15.769531 11.421875 -16.25 11.140625 -16.53125 C 10.867188 -16.820312 10.394531 -16.96875 9.71875 -16.96875 L 7.640625 -16.96875 C 6.984375 -16.96875 6.507812 -16.820312 6.21875 -16.53125 C 5.9375 -16.25 5.796875 -15.769531 5.796875 -15.09375 L 5.796875 -5.375 C 5.796875 -4.695312 5.9375 -4.210938 6.21875 -3.921875 C 6.507812 -3.640625 6.984375 -3.5 7.640625 -3.5 L 9.71875 -3.5 C 10.394531 -3.5 10.867188 -3.640625 11.140625 -3.921875 C 11.421875 -4.210938 11.5625 -4.695312 11.5625 -5.375 L 11.5625 -7.390625 C 11.5625 -7.617188 11.441406 -7.734375 11.203125 -7.734375 L 9.296875 -7.734375 C 8.847656 -7.734375 8.625 -7.957031 8.625 -8.40625 L 8.625 -10.578125 C 8.625 -11.015625 8.847656 -11.234375 9.296875 -11.234375 L 14.875 -11.234375 C 15.363281 -11.234375 15.609375 -10.992188 15.609375 -10.515625 L 15.609375 -5.1875 C 15.609375 -3.53125 15.148438 -2.25 14.234375 -1.34375 C 13.316406 -0.445312 12.03125 0 10.375 0 Z M 10.375 0 "/></g></g></g><g fill="#ffffff" fill-opacity="1"><g transform="translate(112.306482, 60.690463)"><g><path d="M 13.15625 0 L 2.734375 0 C 2.285156 0 2.0625 -0.222656 2.0625 -0.671875 L 2.0625 -19.8125 C 2.0625 -20.25 2.285156 -20.46875 2.734375 -20.46875 L 13.15625 -20.46875 C 13.570312 -20.46875 13.78125 -20.25 13.78125 -19.8125 L 13.78125 -17.640625 C 13.78125 -17.191406 13.570312 -16.96875 13.15625 -16.96875 L 6.5 -16.96875 C 6.238281 -16.96875 6.109375 -16.851562 6.109375 -16.625 L 6.109375 -12.484375 C 6.109375 -12.242188 6.238281 -12.125 6.5 -12.125 L 11.9375 -12.125 C 12.382812 -12.125 12.609375 -11.90625 12.609375 -11.46875 L 12.609375 -9.296875 C 12.609375 -8.847656 12.382812 -8.625 11.9375 -8.625 L 6.5 -8.625 C 6.238281 -8.625 6.109375 -8.507812 6.109375 -8.28125 L 6.109375 -3.859375 C 6.109375 -3.617188 6.238281 -3.5 6.5 -3.5 L 13.15625 -3.5 C 13.570312 -3.5 13.78125 -3.273438 13.78125 -2.828125 L 13.78125 -0.671875 C 13.78125 -0.222656 13.570312 0 13.15625 0 Z M 13.15625 0 "/></g></g></g><g fill="#ffffff" fill-opacity="1"><g transform="translate(127.547674, 60.690463)"><g><path d="M 5.375 0 L 2.734375 0 C 2.285156 0 2.0625 -0.222656 2.0625 -0.671875 L 2.0625 -19.8125 C 2.0625 -20.25 2.285156 -20.46875 2.734375 -20.46875 L 5.125 -20.46875 C 5.570312 -20.46875 5.867188 -20.320312 6.015625 -20.03125 L 12.453125 -7.953125 L 12.578125 -7.953125 L 12.578125 -19.8125 C 12.578125 -20.25 12.800781 -20.46875 13.25 -20.46875 L 15.890625 -20.46875 C 16.335938 -20.46875 16.5625 -20.25 16.5625 -19.8125 L 16.5625 -0.671875 C 16.5625 -0.222656 16.335938 0 15.890625 0 L 13.5625 0 C 13.09375 0 12.753906 -0.210938 12.546875 -0.640625 L 6.171875 -12.484375 L 6.046875 -12.484375 L 6.046875 -0.671875 C 6.046875 -0.222656 5.820312 0 5.375 0 Z M 5.375 0 "/></g></g></g><g fill="#ffffff" fill-opacity="1"><g transform="translate(146.161681, 60.690463)"><g><path d="M 6.265625 -19.8125 L 6.265625 -0.671875 C 6.265625 -0.222656 6.046875 0 5.609375 0 L 2.890625 0 C 2.453125 0 2.234375 -0.222656 2.234375 -0.671875 L 2.234375 -19.8125 C 2.234375 -20.25 2.453125 -20.46875 2.890625 -20.46875 L 5.609375 -20.46875 C 6.046875 -20.46875 6.265625 -20.25 6.265625 -19.8125 Z M 6.265625 -19.8125 "/></g></g></g><g fill="#ffffff" fill-opacity="1"><g transform="translate(154.657302, 60.690463)"><g><path d="M 13.15625 0 L 2.734375 0 C 2.285156 0 2.0625 -0.222656 2.0625 -0.671875 L 2.0625 -19.8125 C 2.0625 -20.25 2.285156 -20.46875 2.734375 -20.46875 L 13.15625 -20.46875 C 13.570312 -20.46875 13.78125 -20.25 13.78125 -19.8125 L 13.78125 -17.640625 C 13.78125 -17.191406 13.570312 -16.96875 13.15625 -16.96875 L 6.5 -16.96875 C 6.238281 -16.96875 6.109375 -16.851562 6.109375 -16.625 L 6.109375 -12.484375 C 6.109375 -12.242188 6.238281 -12.125 6.5 -12.125 L 11.9375 -12.125 C 12.382812 -12.125 12.609375 -11.90625 12.609375 -11.46875 L 12.609375 -9.296875 C 12.609375 -8.847656 12.382812 -8.625 11.9375 -8.625 L 6.5 -8.625 C 6.238281 -8.625 6.109375 -8.507812 6.109375 -8.28125 L 6.109375 -3.859375 C 6.109375 -3.617188 6.238281 -3.5 6.5 -3.5 L 13.15625 -3.5 C 13.570312 -3.5 13.78125 -3.273438 13.78125 -2.828125 L 13.78125 -0.671875 C 13.78125 -0.222656 13.570312 0 13.15625 0 Z M 13.15625 0 "/></g></g></g><g fill="#ffffff" fill-opacity="1"><g transform="translate(169.898494, 60.690463)"><g><path d="M 6.40625 -15.28125 L 6.40625 -12.0625 C 6.40625 -11.445312 6.507812 -11.007812 6.71875 -10.75 C 6.925781 -10.5 7.265625 -10.375 7.734375 -10.375 C 8.160156 -10.375 8.375 -10.144531 8.375 -9.6875 L 8.375 -7.546875 C 8.375 -7.078125 8.160156 -6.84375 7.734375 -6.84375 C 7.265625 -6.84375 6.925781 -6.710938 6.71875 -6.453125 C 6.507812 -6.203125 6.40625 -5.769531 6.40625 -5.15625 L 6.40625 -1.9375 C 6.40625 1.519531 4.8125 3.25 1.625 3.25 L 1.40625 3.25 C 0.957031 3.25 0.734375 3.023438 0.734375 2.578125 L 0.734375 1.078125 C 0.734375 0.628906 0.957031 0.40625 1.40625 0.40625 L 1.5 0.40625 C 2.132812 0.40625 2.570312 0.265625 2.8125 -0.015625 C 3.0625 -0.304688 3.1875 -0.789062 3.1875 -1.46875 L 3.1875 -5.484375 C 3.1875 -7.203125 3.84375 -8.238281 5.15625 -8.59375 C 3.84375 -9.019531 3.1875 -10.070312 3.1875 -11.75 L 3.1875 -15.765625 C 3.1875 -16.441406 3.0625 -16.921875 2.8125 -17.203125 C 2.570312 -17.492188 2.132812 -17.640625 1.5 -17.640625 L 1.40625 -17.640625 C 0.957031 -17.640625 0.734375 -17.863281 0.734375 -18.3125 L 0.734375 -19.8125 C 0.734375 -20.25 0.957031 -20.46875 1.40625 -20.46875 L 1.625 -20.46875 C 4.8125 -20.46875 6.40625 -18.738281 6.40625 -15.28125 Z M 6.40625 -15.28125 "/></g></g></g><g fill="#ffffff" fill-opacity="1"><g transform="translate(54.026373, 73.193714)"><g><path d="M 2.578125 -0.984375 L 0.875 -0.984375 L 0.59375 0 L 0.078125 0 L 1.28125 -3.953125 L 2.171875 -3.953125 L 3.375 0 L 2.859375 0 Z M 1.6875 -3.75 L 1.015625 -1.421875 L 2.4375 -1.421875 L 1.765625 -3.75 Z M 1.6875 -3.75 "/></g></g></g><g fill="#ffffff" fill-opacity="1"><g transform="translate(57.474029, 73.193714)"><g><path d="M 0.46875 -3.953125 L 2.984375 -3.953125 L 2.984375 -3.515625 L 1.96875 -3.515625 L 1.96875 -0.4375 L 2.984375 -0.4375 L 2.984375 0 L 0.46875 0 L 0.46875 -0.4375 L 1.484375 -0.4375 L 1.484375 -3.515625 L 0.46875 -3.515625 Z M 0.46875 -3.953125 "/></g></g></g><g fill="#ffffff" fill-opacity="1"><g transform="translate(60.921684, 73.193714)"><g/></g></g><g fill="#ffffff" fill-opacity="1"><g transform="translate(64.369339, 73.193714)"><g><path d="M 0.34375 -3.953125 L 3.109375 -3.953125 L 3.109375 -3.515625 L 1.96875 -3.515625 L 1.96875 0 L 1.484375 0 L 1.484375 -3.515625 L 0.34375 -3.515625 Z M 0.34375 -3.953125 "/></g></g></g><g fill="#ffffff" fill-opacity="1"><g transform="translate(67.816995, 73.193714)"><g><path d="M 0.40625 -3.953125 L 0.890625 -3.953125 L 0.890625 -2.203125 L 2.5625 -2.203125 L 2.5625 -3.953125 L 3.046875 -3.953125 L 3.046875 0 L 2.5625 0 L 2.5625 -1.765625 L 0.890625 -1.765625 L 0.890625 0 L 0.40625 0 Z M 0.40625 -3.953125 "/></g></g></g><g fill="#ffffff" fill-opacity="1"><g transform="translate(71.26465, 73.193714)"><g><path d="M 2.578125 -0.984375 L 0.875 -0.984375 L 0.59375 0 L 0.078125 0 L 1.28125 -3.953125 L 2.171875 -3.953125 L 3.375 0 L 2.859375 0 Z M 1.6875 -3.75 L 1.015625 -1.421875 L 2.4375 -1.421875 L 1.765625 -3.75 Z M 1.6875 -3.75 "/></g></g></g><g fill="#ffffff" fill-opacity="1"><g transform="translate(74.712306, 73.193714)"><g><path d="M 0.34375 -3.953125 L 3.109375 -3.953125 L 3.109375 -3.515625 L 1.96875 -3.515625 L 1.96875 0 L 1.484375 0 L 1.484375 -3.515625 L 0.34375 -3.515625 Z M 0.34375 -3.953125 "/></g></g></g><g fill="#ffffff" fill-opacity="1"><g transform="translate(78.166293, 73.193714)"><g/></g></g><g fill="#ffffff" fill-opacity="1"><g transform="translate(81.613949, 73.193714)"><g/></g></g><g fill="#ffffff" fill-opacity="1"><g transform="translate(85.068653, 73.193714)"><g><path d="M 1.34375 -1.890625 L 3.109375 -1.890625 L 3.109375 0 L 2.671875 0 L 2.671875 -0.46875 L 2.59375 -0.46875 C 2.53125 -0.300781 2.414062 -0.164062 2.25 -0.0625 C 2.09375 0.03125 1.910156 0.078125 1.703125 0.078125 C 1.273438 0.078125 0.9375 -0.0546875 0.6875 -0.328125 C 0.445312 -0.609375 0.328125 -1.007812 0.328125 -1.53125 L 0.328125 -2.421875 C 0.328125 -2.929688 0.445312 -3.328125 0.6875 -3.609375 C 0.9375 -3.890625 1.28125 -4.03125 1.71875 -4.03125 C 1.945312 -4.03125 2.144531 -3.992188 2.3125 -3.921875 C 2.488281 -3.847656 2.632812 -3.742188 2.75 -3.609375 C 2.863281 -3.484375 2.953125 -3.332031 3.015625 -3.15625 C 3.078125 -2.976562 3.109375 -2.789062 3.109375 -2.59375 L 3.109375 -2.53125 L 2.640625 -2.53125 L 2.640625 -2.59375 C 2.640625 -2.71875 2.617188 -2.835938 2.578125 -2.953125 C 2.546875 -3.078125 2.492188 -3.1875 2.421875 -3.28125 C 2.347656 -3.375 2.253906 -3.445312 2.140625 -3.5 C 2.023438 -3.5625 1.882812 -3.59375 1.71875 -3.59375 C 1.414062 -3.59375 1.1875 -3.476562 1.03125 -3.25 C 0.882812 -3.03125 0.8125 -2.738281 0.8125 -2.375 L 0.8125 -1.5625 C 0.8125 -1.175781 0.882812 -0.878906 1.03125 -0.671875 C 1.1875 -0.460938 1.421875 -0.359375 1.734375 -0.359375 C 2.015625 -0.359375 2.234375 -0.445312 2.390625 -0.625 C 2.554688 -0.8125 2.640625 -1.066406 2.640625 -1.390625 L 2.640625 -1.453125 L 1.34375 -1.453125 Z M 1.34375 -1.890625 "/></g></g></g><g fill="#ffffff" fill-opacity="1"><g transform="translate(88.516308, 73.193714)"><g><path d="M 2.96875 0 L 2.484375 0 L 2.484375 -1.3125 C 2.484375 -1.414062 2.460938 -1.492188 2.421875 -1.546875 C 2.378906 -1.597656 2.300781 -1.625 2.1875 -1.625 L 0.953125 -1.625 L 0.953125 0 L 0.484375 0 L 0.484375 -3.953125 L 1.890625 -3.953125 C 2.085938 -3.953125 2.257812 -3.921875 2.40625 -3.859375 C 2.5625 -3.804688 2.6875 -3.726562 2.78125 -3.625 C 2.882812 -3.53125 2.960938 -3.414062 3.015625 -3.28125 C 3.066406 -3.15625 3.09375 -3.019531 3.09375 -2.875 L 3.09375 -2.703125 C 3.09375 -2.554688 3.050781 -2.410156 2.96875 -2.265625 C 2.894531 -2.117188 2.769531 -2.003906 2.59375 -1.921875 L 2.59375 -1.859375 C 2.707031 -1.835938 2.796875 -1.789062 2.859375 -1.71875 C 2.929688 -1.65625 2.96875 -1.554688 2.96875 -1.421875 Z M 0.953125 -2.0625 L 1.828125 -2.0625 C 2.097656 -2.0625 2.296875 -2.117188 2.421875 -2.234375 C 2.554688 -2.347656 2.625 -2.515625 2.625 -2.734375 L 2.625 -2.84375 C 2.625 -3.039062 2.554688 -3.203125 2.421875 -3.328125 C 2.296875 -3.453125 2.097656 -3.515625 1.828125 -3.515625 L 0.953125 -3.515625 Z M 0.953125 -2.0625 "/></g></g></g><g fill="#ffffff" fill-opacity="1"><g transform="translate(91.963963, 73.193714)"><g><path d="M 2.578125 -0.984375 L 0.875 -0.984375 L 0.59375 0 L 0.078125 0 L 1.28125 -3.953125 L 2.171875 -3.953125 L 3.375 0 L 2.859375 0 Z M 1.6875 -3.75 L 1.015625 -1.421875 L 2.4375 -1.421875 L 1.765625 -3.75 Z M 1.6875 -3.75 "/></g></g></g><g fill="#ffffff" fill-opacity="1"><g transform="translate(95.411619, 73.193714)"><g><path d="M 2.5 -0.203125 L 2.5625 -0.203125 L 2.5625 -3.953125 L 3.046875 -3.953125 L 3.046875 0 L 2.09375 0 L 0.953125 -3.75 L 0.890625 -3.75 L 0.890625 0 L 0.40625 0 L 0.40625 -3.953125 L 1.359375 -3.953125 Z M 2.5 -0.203125 "/></g></g></g><g fill="#ffffff" fill-opacity="1"><g transform="translate(98.859274, 73.193714)"><g><path d="M 0.34375 -3.953125 L 3.109375 -3.953125 L 3.109375 -3.515625 L 1.96875 -3.515625 L 1.96875 0 L 1.484375 0 L 1.484375 -3.515625 L 0.34375 -3.515625 Z M 0.34375 -3.953125 "/></g></g></g><g fill="#ffffff" fill-opacity="1"><g transform="translate(102.30693, 73.193714)"><g><path d="M 2.65625 -2.8125 C 2.65625 -2.9375 2.628906 -3.046875 2.578125 -3.140625 C 2.523438 -3.242188 2.457031 -3.328125 2.375 -3.390625 C 2.289062 -3.453125 2.191406 -3.5 2.078125 -3.53125 C 1.960938 -3.570312 1.84375 -3.59375 1.71875 -3.59375 C 1.613281 -3.59375 1.507812 -3.578125 1.40625 -3.546875 C 1.3125 -3.515625 1.222656 -3.472656 1.140625 -3.421875 C 1.066406 -3.367188 1.003906 -3.300781 0.953125 -3.21875 C 0.910156 -3.144531 0.890625 -3.0625 0.890625 -2.96875 L 0.890625 -2.921875 C 0.890625 -2.816406 0.910156 -2.722656 0.953125 -2.640625 C 1.003906 -2.566406 1.070312 -2.503906 1.15625 -2.453125 C 1.25 -2.398438 1.359375 -2.351562 1.484375 -2.3125 C 1.617188 -2.28125 1.773438 -2.25 1.953125 -2.21875 C 2.367188 -2.15625 2.675781 -2.035156 2.875 -1.859375 C 3.070312 -1.679688 3.171875 -1.441406 3.171875 -1.140625 L 3.171875 -1.078125 C 3.171875 -0.898438 3.140625 -0.738281 3.078125 -0.59375 C 3.015625 -0.457031 2.925781 -0.335938 2.8125 -0.234375 C 2.695312 -0.140625 2.554688 -0.0625 2.390625 0 C 2.222656 0.0507812 2.03125 0.078125 1.8125 0.078125 C 1.550781 0.078125 1.320312 0.0390625 1.125 -0.03125 C 0.9375 -0.101562 0.773438 -0.203125 0.640625 -0.328125 C 0.515625 -0.460938 0.414062 -0.617188 0.34375 -0.796875 C 0.28125 -0.972656 0.25 -1.160156 0.25 -1.359375 L 0.25 -1.53125 L 0.734375 -1.53125 L 0.734375 -1.40625 C 0.734375 -1.050781 0.828125 -0.785156 1.015625 -0.609375 C 1.203125 -0.441406 1.46875 -0.359375 1.8125 -0.359375 C 2.101562 -0.359375 2.320312 -0.421875 2.46875 -0.546875 C 2.613281 -0.679688 2.6875 -0.859375 2.6875 -1.078125 L 2.6875 -1.109375 C 2.6875 -1.316406 2.609375 -1.472656 2.453125 -1.578125 C 2.304688 -1.691406 2.0625 -1.769531 1.71875 -1.8125 C 1.519531 -1.84375 1.335938 -1.882812 1.171875 -1.9375 C 1.015625 -1.988281 0.878906 -2.054688 0.765625 -2.140625 C 0.660156 -2.234375 0.578125 -2.34375 0.515625 -2.46875 C 0.453125 -2.59375 0.421875 -2.738281 0.421875 -2.90625 L 0.421875 -2.984375 C 0.421875 -3.128906 0.453125 -3.265625 0.515625 -3.390625 C 0.578125 -3.523438 0.664062 -3.640625 0.78125 -3.734375 C 0.894531 -3.828125 1.03125 -3.898438 1.1875 -3.953125 C 1.351562 -4.003906 1.53125 -4.03125 1.71875 -4.03125 C 1.945312 -4.03125 2.144531 -3.992188 2.3125 -3.921875 C 2.488281 -3.859375 2.632812 -3.773438 2.75 -3.671875 C 2.875 -3.566406 2.96875 -3.441406 3.03125 -3.296875 C 3.09375 -3.148438 3.125 -3 3.125 -2.84375 L 3.125 -2.609375 L 2.65625 -2.609375 Z M 2.65625 -2.8125 "/></g></g></g><g fill="#ffffff" fill-opacity="1"><g transform="translate(105.754585, 73.193714)"><g/></g></g><g fill="#ffffff" fill-opacity="1"><g transform="translate(109.202241, 73.193714)"><g><path d="M 0.40625 -3.953125 L 1.703125 -3.953125 C 2.191406 -3.953125 2.550781 -3.832031 2.78125 -3.59375 C 3.007812 -3.363281 3.125 -2.992188 3.125 -2.484375 L 3.125 -1.46875 C 3.125 -0.957031 3.007812 -0.582031 2.78125 -0.34375 C 2.550781 -0.113281 2.191406 0 1.703125 0 L 0.40625 0 L 0.40625 -0.453125 L 0.75 -0.453125 L 0.75 -3.515625 L 0.40625 -3.515625 Z M 1.640625 -0.4375 C 1.816406 -0.4375 1.96875 -0.453125 2.09375 -0.484375 C 2.21875 -0.523438 2.320312 -0.582031 2.40625 -0.65625 C 2.488281 -0.738281 2.546875 -0.847656 2.578125 -0.984375 C 2.617188 -1.117188 2.640625 -1.289062 2.640625 -1.5 L 2.640625 -2.453125 C 2.640625 -2.660156 2.617188 -2.832031 2.578125 -2.96875 C 2.546875 -3.101562 2.488281 -3.207031 2.40625 -3.28125 C 2.320312 -3.363281 2.21875 -3.421875 2.09375 -3.453125 C 1.96875 -3.492188 1.816406 -3.515625 1.640625 -3.515625 L 1.21875 -3.515625 L 1.21875 -0.4375 Z M 1.640625 -0.4375 "/></g></g></g><g fill="#ffffff" fill-opacity="1"><g transform="translate(112.649896, 73.193714)"><g><path d="M 0.53125 -3.953125 L 2.921875 -3.953125 L 2.921875 -3.515625 L 1 -3.515625 L 1 -2.203125 L 2.890625 -2.203125 L 2.890625 -1.765625 L 1 -1.765625 L 1 -0.4375 L 2.953125 -0.4375 L 2.953125 0 L 0.53125 0 Z M 0.53125 -3.953125 "/></g></g></g><g fill="#ffffff" fill-opacity="1"><g transform="translate(116.097551, 73.193714)"><g><path d="M 0.328125 -0.4375 L 0.65625 -0.4375 L 0.65625 -3.515625 L 0.328125 -3.515625 L 0.328125 -3.953125 L 1.921875 -3.953125 C 2.109375 -3.953125 2.273438 -3.925781 2.421875 -3.875 C 2.566406 -3.820312 2.6875 -3.75 2.78125 -3.65625 C 2.882812 -3.5625 2.957031 -3.453125 3 -3.328125 C 3.050781 -3.203125 3.078125 -3.066406 3.078125 -2.921875 L 3.078125 -2.859375 C 3.078125 -2.742188 3.0625 -2.640625 3.03125 -2.546875 C 3 -2.460938 2.953125 -2.382812 2.890625 -2.3125 C 2.828125 -2.238281 2.753906 -2.175781 2.671875 -2.125 C 2.597656 -2.070312 2.515625 -2.035156 2.421875 -2.015625 L 2.421875 -1.953125 C 2.609375 -1.890625 2.765625 -1.785156 2.890625 -1.640625 C 3.015625 -1.492188 3.078125 -1.3125 3.078125 -1.09375 L 3.078125 -1.03125 C 3.078125 -0.882812 3.050781 -0.75 3 -0.625 C 2.957031 -0.5 2.882812 -0.390625 2.78125 -0.296875 C 2.6875 -0.203125 2.566406 -0.128906 2.421875 -0.078125 C 2.273438 -0.0234375 2.109375 0 1.921875 0 L 0.328125 0 Z M 1.140625 -0.4375 L 1.890625 -0.4375 C 2.109375 -0.4375 2.285156 -0.488281 2.421875 -0.59375 C 2.566406 -0.707031 2.640625 -0.863281 2.640625 -1.0625 L 2.640625 -1.09375 C 2.640625 -1.300781 2.570312 -1.460938 2.4375 -1.578125 C 2.300781 -1.703125 2.125 -1.765625 1.90625 -1.765625 L 1.140625 -1.765625 Z M 1.140625 -2.203125 L 1.90625 -2.203125 C 2.125 -2.203125 2.300781 -2.257812 2.4375 -2.375 C 2.570312 -2.488281 2.640625 -2.648438 2.640625 -2.859375 L 2.640625 -2.890625 C 2.640625 -3.078125 2.566406 -3.226562 2.421875 -3.34375 C 2.285156 -3.457031 2.109375 -3.515625 1.890625 -3.515625 L 1.140625 -3.515625 Z M 1.140625 -2.203125 "/></g></g></g><g fill="#ffffff" fill-opacity="1"><g transform="translate(119.545207, 73.193714)"><g><path d="M 0.84375 -3.953125 L 0.84375 -1.328125 C 0.84375 -1.015625 0.914062 -0.773438 1.0625 -0.609375 C 1.21875 -0.441406 1.4375 -0.359375 1.71875 -0.359375 C 2.007812 -0.359375 2.226562 -0.441406 2.375 -0.609375 C 2.53125 -0.773438 2.609375 -1.015625 2.609375 -1.328125 L 2.609375 -3.953125 L 3.078125 -3.953125 L 3.078125 -1.328125 C 3.078125 -0.867188 2.957031 -0.519531 2.71875 -0.28125 C 2.476562 -0.0390625 2.144531 0.078125 1.71875 0.078125 C 1.300781 0.078125 0.972656 -0.0390625 0.734375 -0.28125 C 0.492188 -0.519531 0.375 -0.867188 0.375 -1.328125 L 0.375 -3.953125 Z M 0.84375 -3.953125 "/></g></g></g><g fill="#ffffff" fill-opacity="1"><g transform="translate(122.992862, 73.193714)"><g><path d="M 1.34375 -1.890625 L 3.109375 -1.890625 L 3.109375 0 L 2.671875 0 L 2.671875 -0.46875 L 2.59375 -0.46875 C 2.53125 -0.300781 2.414062 -0.164062 2.25 -0.0625 C 2.09375 0.03125 1.910156 0.078125 1.703125 0.078125 C 1.273438 0.078125 0.9375 -0.0546875 0.6875 -0.328125 C 0.445312 -0.609375 0.328125 -1.007812 0.328125 -1.53125 L 0.328125 -2.421875 C 0.328125 -2.929688 0.445312 -3.328125 0.6875 -3.609375 C 0.9375 -3.890625 1.28125 -4.03125 1.71875 -4.03125 C 1.945312 -4.03125 2.144531 -3.992188 2.3125 -3.921875 C 2.488281 -3.847656 2.632812 -3.742188 2.75 -3.609375 C 2.863281 -3.484375 2.953125 -3.332031 3.015625 -3.15625 C 3.078125 -2.976562 3.109375 -2.789062 3.109375 -2.59375 L 3.109375 -2.53125 L 2.640625 -2.53125 L 2.640625 -2.59375 C 2.640625 -2.71875 2.617188 -2.835938 2.578125 -2.953125 C 2.546875 -3.078125 2.492188 -3.1875 2.421875 -3.28125 C 2.347656 -3.375 2.253906 -3.445312 2.140625 -3.5 C 2.023438 -3.5625 1.882812 -3.59375 1.71875 -3.59375 C 1.414062 -3.59375 1.1875 -3.476562 1.03125 -3.25 C 0.882812 -3.03125 0.8125 -2.738281 0.8125 -2.375 L 0.8125 -1.5625 C 0.8125 -1.175781 0.882812 -0.878906 1.03125 -0.671875 C 1.1875 -0.460938 1.421875 -0.359375 1.734375 -0.359375 C 2.015625 -0.359375 2.234375 -0.445312 2.390625 -0.625 C 2.554688 -0.8125 2.640625 -1.066406 2.640625 -1.390625 L 2.640625 -1.453125 L 1.34375 -1.453125 Z M 1.34375 -1.890625 "/></g></g></g><g fill="#ffffff" fill-opacity="1"><g transform="translate(126.440518, 73.193714)"><g><path d="M 1.34375 -1.890625 L 3.109375 -1.890625 L 3.109375 0 L 2.671875 0 L 2.671875 -0.46875 L 2.59375 -0.46875 C 2.53125 -0.300781 2.414062 -0.164062 2.25 -0.0625 C 2.09375 0.03125 1.910156 0.078125 1.703125 0.078125 C 1.273438 0.078125 0.9375 -0.0546875 0.6875 -0.328125 C 0.445312 -0.609375 0.328125 -1.007812 0.328125 -1.53125 L 0.328125 -2.421875 C 0.328125 -2.929688 0.445312 -3.328125 0.6875 -3.609375 C 0.9375 -3.890625 1.28125 -4.03125 1.71875 -4.03125 C 1.945312 -4.03125 2.144531 -3.992188 2.3125 -3.921875 C 2.488281 -3.847656 2.632812 -3.742188 2.75 -3.609375 C 2.863281 -3.484375 2.953125 -3.332031 3.015625 -3.15625 C 3.078125 -2.976562 3.109375 -2.789062 3.109375 -2.59375 L 3.109375 -2.53125 L 2.640625 -2.53125 L 2.640625 -2.59375 C 2.640625 -2.71875 2.617188 -2.835938 2.578125 -2.953125 C 2.546875 -3.078125 2.492188 -3.1875 2.421875 -3.28125 C 2.347656 -3.375 2.253906 -3.445312 2.140625 -3.5 C 2.023438 -3.5625 1.882812 -3.59375 1.71875 -3.59375 C 1.414062 -3.59375 1.1875 -3.476562 1.03125 -3.25 C 0.882812 -3.03125 0.8125 -2.738281 0.8125 -2.375 L 0.8125 -1.5625 C 0.8125 -1.175781 0.882812 -0.878906 1.03125 -0.671875 C 1.1875 -0.460938 1.421875 -0.359375 1.734375 -0.359375 C 2.015625 -0.359375 2.234375 -0.445312 2.390625 -0.625 C 2.554688 -0.8125 2.640625 -1.066406 2.640625 -1.390625 L 2.640625 -1.453125 L 1.34375 -1.453125 Z M 1.34375 -1.890625 "/></g></g></g><g fill="#ffffff" fill-opacity="1"><g transform="translate(129.888173, 73.193714)"><g><path d="M 0.46875 -3.953125 L 2.984375 -3.953125 L 2.984375 -3.515625 L 1.96875 -3.515625 L 1.96875 -0.4375 L 2.984375 -0.4375 L 2.984375 0 L 0.46875 0 L 0.46875 -0.4375 L 1.484375 -0.4375 L 1.484375 -3.515625 L 0.46875 -3.515625 Z M 0.46875 -3.953125 "/></g></g></g><g fill="#ffffff" fill-opacity="1"><g transform="translate(133.335828, 73.193714)"><g><path d="M 2.5 -0.203125 L 2.5625 -0.203125 L 2.5625 -3.953125 L 3.046875 -3.953125 L 3.046875 0 L 2.09375 0 L 0.953125 -3.75 L 0.890625 -3.75 L 0.890625 0 L 0.40625 0 L 0.40625 -3.953125 L 1.359375 -3.953125 Z M 2.5 -0.203125 "/></g></g></g><g fill="#ffffff" fill-opacity="1"><g transform="translate(136.783484, 73.193714)"><g><path d="M 1.34375 -1.890625 L 3.109375 -1.890625 L 3.109375 0 L 2.671875 0 L 2.671875 -0.46875 L 2.59375 -0.46875 C 2.53125 -0.300781 2.414062 -0.164062 2.25 -0.0625 C 2.09375 0.03125 1.910156 0.078125 1.703125 0.078125 C 1.273438 0.078125 0.9375 -0.0546875 0.6875 -0.328125 C 0.445312 -0.609375 0.328125 -1.007812 0.328125 -1.53125 L 0.328125 -2.421875 C 0.328125 -2.929688 0.445312 -3.328125 0.6875 -3.609375 C 0.9375 -3.890625 1.28125 -4.03125 1.71875 -4.03125 C 1.945312 -4.03125 2.144531 -3.992188 2.3125 -3.921875 C 2.488281 -3.847656 2.632812 -3.742188 2.75 -3.609375 C 2.863281 -3.484375 2.953125 -3.332031 3.015625 -3.15625 C 3.078125 -2.976562 3.109375 -2.789062 3.109375 -2.59375 L 3.109375 -2.53125 L 2.640625 -2.53125 L 2.640625 -2.59375 C 2.640625 -2.71875 2.617188 -2.835938 2.578125 -2.953125 C 2.546875 -3.078125 2.492188 -3.1875 2.421875 -3.28125 C 2.347656 -3.375 2.253906 -3.445312 2.140625 -3.5 C 2.023438 -3.5625 1.882812 -3.59375 1.71875 -3.59375 C 1.414062 -3.59375 1.1875 -3.476562 1.03125 -3.25 C 0.882812 -3.03125 0.8125 -2.738281 0.8125 -2.375 L 0.8125 -1.5625 C 0.8125 -1.175781 0.882812 -0.878906 1.03125 -0.671875 C 1.1875 -0.460938 1.421875 -0.359375 1.734375 -0.359375 C 2.015625 -0.359375 2.234375 -0.445312 2.390625 -0.625 C 2.554688 -0.8125 2.640625 -1.066406 2.640625 -1.390625 L 2.640625 -1.453125 L 1.34375 -1.453125 Z M 1.34375 -1.890625 "/></g></g></g><g fill="#ffffff" fill-opacity="1"><g transform="translate(140.231139, 73.193714)"><g/></g></g><g fill="#ffffff" fill-opacity="1"><g transform="translate(143.678795, 73.193714)"><g><path d="M 2.984375 0 L 2.125 0 L 1.765625 -3.75 L 1.6875 -3.75 L 1.328125 0 L 0.46875 0 L 0.0625 -3.953125 L 0.484375 -3.953125 L 0.875 -0.203125 L 0.9375 -0.203125 L 1.296875 -3.953125 L 2.15625 -3.953125 L 2.515625 -0.203125 L 2.578125 -0.203125 L 2.96875 -3.953125 L 3.390625 -3.953125 Z M 2.984375 0 "/></g></g></g><g fill="#ffffff" fill-opacity="1"><g transform="translate(147.12645, 73.193714)"><g><path d="M 0.46875 -3.953125 L 2.984375 -3.953125 L 2.984375 -3.515625 L 1.96875 -3.515625 L 1.96875 -0.4375 L 2.984375 -0.4375 L 2.984375 0 L 0.46875 0 L 0.46875 -0.4375 L 1.484375 -0.4375 L 1.484375 -3.515625 L 0.46875 -3.515625 Z M 0.46875 -3.953125 "/></g></g></g><g fill="#ffffff" fill-opacity="1"><g transform="translate(150.574105, 73.193714)"><g><path d="M 2.65625 -2.8125 C 2.65625 -2.9375 2.628906 -3.046875 2.578125 -3.140625 C 2.523438 -3.242188 2.457031 -3.328125 2.375 -3.390625 C 2.289062 -3.453125 2.191406 -3.5 2.078125 -3.53125 C 1.960938 -3.570312 1.84375 -3.59375 1.71875 -3.59375 C 1.613281 -3.59375 1.507812 -3.578125 1.40625 -3.546875 C 1.3125 -3.515625 1.222656 -3.472656 1.140625 -3.421875 C 1.066406 -3.367188 1.003906 -3.300781 0.953125 -3.21875 C 0.910156 -3.144531 0.890625 -3.0625 0.890625 -2.96875 L 0.890625 -2.921875 C 0.890625 -2.816406 0.910156 -2.722656 0.953125 -2.640625 C 1.003906 -2.566406 1.070312 -2.503906 1.15625 -2.453125 C 1.25 -2.398438 1.359375 -2.351562 1.484375 -2.3125 C 1.617188 -2.28125 1.773438 -2.25 1.953125 -2.21875 C 2.367188 -2.15625 2.675781 -2.035156 2.875 -1.859375 C 3.070312 -1.679688 3.171875 -1.441406 3.171875 -1.140625 L 3.171875 -1.078125 C 3.171875 -0.898438 3.140625 -0.738281 3.078125 -0.59375 C 3.015625 -0.457031 2.925781 -0.335938 2.8125 -0.234375 C 2.695312 -0.140625 2.554688 -0.0625 2.390625 0 C 2.222656 0.0507812 2.03125 0.078125 1.8125 0.078125 C 1.550781 0.078125 1.320312 0.0390625 1.125 -0.03125 C 0.9375 -0.101562 0.773438 -0.203125 0.640625 -0.328125 C 0.515625 -0.460938 0.414062 -0.617188 0.34375 -0.796875 C 0.28125 -0.972656 0.25 -1.160156 0.25 -1.359375 L 0.25 -1.53125 L 0.734375 -1.53125 L 0.734375 -1.40625 C 0.734375 -1.050781 0.828125 -0.785156 1.015625 -0.609375 C 1.203125 -0.441406 1.46875 -0.359375 1.8125 -0.359375 C 2.101562 -0.359375 2.320312 -0.421875 2.46875 -0.546875 C 2.613281 -0.679688 2.6875 -0.859375 2.6875 -1.078125 L 2.6875 -1.109375 C 2.6875 -1.316406 2.609375 -1.472656 2.453125 -1.578125 C 2.304688 -1.691406 2.0625 -1.769531 1.71875 -1.8125 C 1.519531 -1.84375 1.335938 -1.882812 1.171875 -1.9375 C 1.015625 -1.988281 0.878906 -2.054688 0.765625 -2.140625 C 0.660156 -2.234375 0.578125 -2.34375 0.515625 -2.46875 C 0.453125 -2.59375 0.421875 -2.738281 0.421875 -2.90625 L 0.421875 -2.984375 C 0.421875 -3.128906 0.453125 -3.265625 0.515625 -3.390625 C 0.578125 -3.523438 0.664062 -3.640625 0.78125 -3.734375 C 0.894531 -3.828125 1.03125 -3.898438 1.1875 -3.953125 C 1.351562 -4.003906 1.53125 -4.03125 1.71875 -4.03125 C 1.945312 -4.03125 2.144531 -3.992188 2.3125 -3.921875 C 2.488281 -3.859375 2.632812 -3.773438 2.75 -3.671875 C 2.875 -3.566406 2.96875 -3.441406 3.03125 -3.296875 C 3.09375 -3.148438 3.125 -3 3.125 -2.84375 L 3.125 -2.609375 L 2.65625 -2.609375 Z M 2.65625 -2.8125 "/></g></g></g><g fill="#ffffff" fill-opacity="1"><g transform="translate(154.021761, 73.193714)"><g><path d="M 0.40625 -3.953125 L 0.890625 -3.953125 L 0.890625 -2.203125 L 2.5625 -2.203125 L 2.5625 -3.953125 L 3.046875 -3.953125 L 3.046875 0 L 2.5625 0 L 2.5625 -1.765625 L 0.890625 -1.765625 L 0.890625 0 L 0.40625 0 Z M 0.40625 -3.953125 "/></g></g></g><g fill="#ffffff" fill-opacity="1"><g transform="translate(157.469416, 73.193714)"><g><path d="M 0.53125 -3.953125 L 2.921875 -3.953125 L 2.921875 -3.515625 L 1 -3.515625 L 1 -2.203125 L 2.890625 -2.203125 L 2.890625 -1.765625 L 1 -1.765625 L 1 -0.4375 L 2.953125 -0.4375 L 2.953125 0 L 0.53125 0 Z M 0.53125 -3.953125 "/></g></g></g><g fill="#ffffff" fill-opacity="1"><g transform="translate(160.917072, 73.193714)"><g><path d="M 2.65625 -2.8125 C 2.65625 -2.9375 2.628906 -3.046875 2.578125 -3.140625 C 2.523438 -3.242188 2.457031 -3.328125 2.375 -3.390625 C 2.289062 -3.453125 2.191406 -3.5 2.078125 -3.53125 C 1.960938 -3.570312 1.84375 -3.59375 1.71875 -3.59375 C 1.613281 -3.59375 1.507812 -3.578125 1.40625 -3.546875 C 1.3125 -3.515625 1.222656 -3.472656 1.140625 -3.421875 C 1.066406 -3.367188 1.003906 -3.300781 0.953125 -3.21875 C 0.910156 -3.144531 0.890625 -3.0625 0.890625 -2.96875 L 0.890625 -2.921875 C 0.890625 -2.816406 0.910156 -2.722656 0.953125 -2.640625 C 1.003906 -2.566406 1.070312 -2.503906 1.15625 -2.453125 C 1.25 -2.398438 1.359375 -2.351562 1.484375 -2.3125 C 1.617188 -2.28125 1.773438 -2.25 1.953125 -2.21875 C 2.367188 -2.15625 2.675781 -2.035156 2.875 -1.859375 C 3.070312 -1.679688 3.171875 -1.441406 3.171875 -1.140625 L 3.171875 -1.078125 C 3.171875 -0.898438 3.140625 -0.738281 3.078125 -0.59375 C 3.015625 -0.457031 2.925781 -0.335938 2.8125 -0.234375 C 2.695312 -0.140625 2.554688 -0.0625 2.390625 0 C 2.222656 0.0507812 2.03125 0.078125 1.8125 0.078125 C 1.550781 0.078125 1.320312 0.0390625 1.125 -0.03125 C 0.9375 -0.101562 0.773438 -0.203125 0.640625 -0.328125 C 0.515625 -0.460938 0.414062 -0.617188 0.34375 -0.796875 C 0.28125 -0.972656 0.25 -1.160156 0.25 -1.359375 L 0.25 -1.53125 L 0.734375 -1.53125 L 0.734375 -1.40625 C 0.734375 -1.050781 0.828125 -0.785156 1.015625 -0.609375 C 1.203125 -0.441406 1.46875 -0.359375 1.8125 -0.359375 C 2.101562 -0.359375 2.320312 -0.421875 2.46875 -0.546875 C 2.613281 -0.679688 2.6875 -0.859375 2.6875 -1.078125 L 2.6875 -1.109375 C 2.6875 -1.316406 2.609375 -1.472656 2.453125 -1.578125 C 2.304688 -1.691406 2.0625 -1.769531 1.71875 -1.8125 C 1.519531 -1.84375 1.335938 -1.882812 1.171875 -1.9375 C 1.015625 -1.988281 0.878906 -2.054688 0.765625 -2.140625 C 0.660156 -2.234375 0.578125 -2.34375 0.515625 -2.46875 C 0.453125 -2.59375 0.421875 -2.738281 0.421875 -2.90625 L 0.421875 -2.984375 C 0.421875 -3.128906 0.453125 -3.265625 0.515625 -3.390625 C 0.578125 -3.523438 0.664062 -3.640625 0.78125 -3.734375 C 0.894531 -3.828125 1.03125 -3.898438 1.1875 -3.953125 C 1.351562 -4.003906 1.53125 -4.03125 1.71875 -4.03125 C 1.945312 -4.03125 2.144531 -3.992188 2.3125 -3.921875 C 2.488281 -3.859375 2.632812 -3.773438 2.75 -3.671875 C 2.875 -3.566406 2.96875 -3.441406 3.03125 -3.296875 C 3.09375 -3.148438 3.125 -3 3.125 -2.84375 L 3.125 -2.609375 L 2.65625 -2.609375 Z M 2.65625 -2.8125 "/></g></g></g></svg>